FILE "Langrisser1_EN_test.bin" BINARY

  TRACK 01 MODE1/2352
    INDEX 01 00:02:00
  TRACK 02 MODE2/2352
    INDEX 01 37:12:17
  TRACK 03 AUDIO
    INDEX 01 52:25:62
  TRACK 04 AUDIO
    INDEX 01 53:22:42
  TRACK 05 AUDIO
    INDEX 01 54:59:25
  TRACK 06 AUDIO
    INDEX 01 61:56:55
